<svg width="20" height="21" viewBox="0 0 20 21" fill="none" xmlns="http://www.w3.org/2000/svg">
<path d="M6.66669 8H13.3334M6.66669 10.9167H11.25" stroke="#808080" stroke-width="1.5" stroke-linecap="round"/>
<path d="M1.04169 9.25008C1.04169 9.41584 1.10754 9.57481 1.22475 9.69202C1.34196 9.80923 1.50093 9.87508 1.66669 9.87508C1.83245 9.87508 1.99142 9.80923 2.10863 9.69202C2.22584 9.57481 2.29169 9.41584 2.29169 9.25008H1.04169ZM2.56169 13.5217C2.49826 13.3686 2.37658 13.2469 2.22342 13.1834C2.07027 13.12 1.89818 13.12 1.74502 13.1834C1.59186 13.2468 1.47017 13.3685 1.40672 13.5217C1.34327 13.6748 1.34326 13.8469 1.40669 14.0001L2.56169 13.5217ZM11.4434 18.6417L11.895 17.8784L10.82 17.2417L10.3675 18.0051L11.4434 18.6417ZM8.10502 17.8784L8.55669 18.6417L9.63169 18.0051L9.18085 17.2417L8.10502 17.8784ZM10.3675 18.0051C10.3286 18.0674 10.2744 18.1188 10.2101 18.1545C10.1458 18.1901 10.0735 18.2088 10 18.2088C9.92651 18.2088 9.85421 18.1901 9.78993 18.1545C9.72564 18.1188 9.67147 18.0674 9.63252 18.0051L8.55669 18.6417C9.20085 19.7309 10.7984 19.7309 11.4434 18.6417L10.3675 18.0051ZM8.75002 2.79175H11.25V1.54175H8.75002V2.79175ZM17.7084 9.25008V10.0834H18.9584V9.25008H17.7084ZM6.50252 15.7017C5.45585 15.6834 4.90752 15.6167 4.47752 15.4384L4.00002 16.5934C4.67085 16.8717 5.43419 16.9342 6.48085 16.9526L6.50252 15.7017ZM1.40669 14.0001C1.64749 14.5815 2.00045 15.1097 2.44542 15.5547C2.89039 15.9996 3.41864 16.3526 4.00002 16.5934L4.47752 15.4384C3.60975 15.079 2.92114 14.3895 2.56169 13.5217L1.40669 14.0001ZM17.7084 10.0834C17.7084 11.0626 17.7084 11.7659 17.67 12.3209C17.6325 12.8701 17.5609 13.2284 17.4392 13.5217L18.5934 14.0001C18.7892 13.5284 18.875 13.0184 18.9175 12.4059C18.9592 11.7984 18.9584 11.0459 18.9584 10.0834H17.7084ZM13.5192 16.9509C14.5659 16.9334 15.3292 16.8717 16 16.5934L15.5217 15.4384C15.0925 15.6167 14.5442 15.6834 13.4984 15.7017L13.5192 16.9509ZM17.4392 13.5217C17.0797 14.3895 16.3903 15.079 15.5225 15.4384L16 16.5934C16.5814 16.3526 17.1097 15.9996 17.5546 15.5547C17.9996 15.1097 18.3525 14.5815 18.5934 14.0001L17.4392 13.5217ZM11.25 2.79175C12.6259 2.79175 13.6142 2.79175 14.385 2.86591C15.1467 2.93841 15.6309 3.07675 16.0175 3.31342L16.67 2.24758C16.0542 1.87091 15.3559 1.70258 14.5034 1.62092C13.66 1.54092 12.6017 1.54175 11.25 1.54175V2.79175ZM18.9584 9.25008C18.9584 7.89841 18.9584 6.84092 18.8784 5.99675C18.7975 5.14425 18.6292 4.44508 18.2525 3.83008L17.1859 4.48258C17.4234 4.86925 17.5617 5.35341 17.6342 6.11591C17.7075 6.88591 17.7084 7.87425 17.7084 9.25008H18.9584ZM16.0167 3.31342C16.4935 3.60533 16.8944 4.00598 17.1867 4.48258L18.2525 3.83008C17.8573 3.18506 17.315 2.64277 16.67 2.24758L16.0167 3.31342ZM8.75002 1.54175C7.39835 1.54175 6.34085 1.54175 5.49669 1.62092C4.64419 1.70258 3.94502 1.87091 3.33002 2.24758L3.98252 3.31425C4.36919 3.07675 4.85335 2.93841 5.61585 2.86591C6.38585 2.79258 7.37419 2.79175 8.75002 2.79175V1.54175ZM2.29169 9.25008C2.29169 7.87425 2.29169 6.88591 2.36585 6.11508C2.43835 5.35342 2.57669 4.86925 2.81335 4.48258L1.74752 3.83091C1.37085 4.44591 1.20252 5.14425 1.12085 5.99675C1.04169 6.84175 1.04169 7.89841 1.04169 9.25008H2.29169ZM3.33002 2.24758C2.685 2.64277 2.14271 3.1859 1.74752 3.83091L2.81419 4.48258C3.10597 4.00617 3.50631 3.60554 3.98252 3.31342L3.33002 2.24758ZM9.18002 17.2417C9.01169 16.9559 8.86335 16.7034 8.71835 16.5051C8.56921 16.2876 8.37547 16.1044 8.15002 15.9676L7.52169 17.0484C7.56085 17.0717 7.61502 17.1134 7.70835 17.2417C7.80919 17.3801 7.92335 17.5717 8.10502 17.8784L9.18002 17.2417ZM6.48085 16.9509C6.84752 16.9576 7.07835 16.9626 7.25502 16.9817C7.42002 17.0001 7.48419 17.0267 7.52169 17.0484L8.15002 15.9676C7.91669 15.8383 7.65842 15.7605 7.39252 15.7392C7.14419 15.7117 6.84585 15.7076 6.50252 15.7017L6.48085 16.9509ZM11.895 17.8784C12.0767 17.5726 12.1909 17.3801 12.2917 17.2417C12.385 17.1134 12.4392 17.0717 12.4784 17.0484L11.85 15.9676C11.6084 16.1092 11.4334 16.2967 11.2817 16.5051C11.1375 16.7034 10.9884 16.9551 10.8192 17.2417L11.895 17.8784ZM13.4984 15.7017C13.155 15.7076 12.8559 15.7117 12.6075 15.7392C12.3484 15.7684 12.0942 15.8259 11.85 15.9676L12.4784 17.0484C12.5159 17.0267 12.58 17.0001 12.745 16.9817C12.9217 16.9626 13.1534 16.9567 13.52 16.9509L13.4984 15.7017Z" fill="#808080"/>
</svg>
